<svg xmlns="http://www.w3.org/2000/svg">
  <symbol id="vk" viewBox="0 0 16 16">
    <path d="M7.695 3.02c-.828-.008-1.453.03-1.976.3a1.32 1.32 0 0 0-.485.414c-.062.082-.12.157-.148.329a.517.517 0 0 0 .059.367c.085.152.27.254.394.273.094.012.293.094.328.14a.782.782 0 0 1 .125.25c.012.048.008.016.008.016v.047s.031.492.012 1c-.012.25-.035.512-.074.688-.04.176-.137.218.003.136-.097.06-.062.082-.183.02-.125-.059-.45-.332-.875-1.098-.426-.77-.735-1.168-.805-1.254-.027-.078-.094-.238-.32-.414-.293-.226-.594-.23-.594-.23L3.137 4H.953s-.125.004-.27.035c-.144.031-.351.067-.546.309H.133c-.2.254-.164.484-.149.625.02.144.063.258.063.258l.008.023.011.023S1.734 8.832 3.726 11c1.872 2.04 4.04 2 4.04 2h1.23l.027-.004s.395.02.727-.351a.914.914 0 0 0 .227-.504c.023-.137.023-.246.023-.246v.03s.016-.257.086-.527c.035-.132.086-.265.133-.34.023-.042.023-.03.031-.042.086.062.227.207.375.39.305.364.648.867 1.129 1.215.348.246.676.356.926.395.168.027.289.023.37.015l1.7-.031h.016s.351-.008.703-.23a.988.988 0 0 0 .437-.594c.07-.285-.008-.594-.172-.88.055.099-.011-.03-.062-.132a3.596 3.596 0 0 0-.246-.41c-.227-.336-.602-.809-1.223-1.41-.293-.281-.48-.438-.598-.547.036-.05.04-.055.172-.211.211-.246.52-.61.91-1.152.47-.657.81-1.192 1.028-1.637.219-.442.394-.809.2-1.262-.106-.246-.294-.34-.43-.398a1.647 1.647 0 0 0-.383-.102C14.872 4 14.668 4 14.668 4l-1.98.016c-.06-.012-.286-.055-.579.132-.289.18-.355.372-.37.43-.048.067-.376.531-.833 1.344-.46.82-.773 1.043-.812 1.062-.012-.011.011-.007-.043-.039-.024-.02-.047-.035-.067-.246-.015-.21.004-.543.004-.933 0-.84.075-1.278.032-1.696-.02-.21-.106-.468-.293-.64-.188-.168-.391-.23-.602-.285-.332-.083-.781-.118-1.43-.125zm-.008 1c.606.007 1.032.054 1.188.093.133.035.152.051.148.043v.016c.016.168-.035.707-.035 1.594 0 .347-.027.683 0 1.02.028.335.149.745.504.987h.004c-.043-.027.45.34.918.172.469-.172.84-.601 1.367-1.535.461-.828.801-1.293.801-1.293l.031-.047.024-.047s-.008-.003 0-.007L14.668 5s.14 0 .277.023h.012c-.02.008-.004.059-.14.336-.176.356-.493.864-.942 1.493a16.4 16.4 0 0 1-.855 1.085c-.207.239-.364.352-.465.665a.78.78 0 0 0 .035.53c.07.15.156.231.242.313.172.164.375.325.672.617.582.563.91.977 1.094 1.25.093.141.148.239.183.31.035.07.012.042.09.175.066.121.055.137.055.129a1.073 1.073 0 0 1-.239.074l-1.699.031-.047.012s.004.004-.101-.012a1.202 1.202 0 0 1-.5-.222c-.27-.192-.61-.637-.945-1.043a3.15 3.15 0 0 0-.543-.551c-.211-.156-.543-.3-.883-.188-.293.094-.485.309-.606.508a2.5 2.5 0 0 0-.246.606c-.101.386-.117.734-.117.734v.031s0 .024-.008.059c-.02.008-.047.027-.062.035H7.734s-1.652.086-3.273-1.672C2.727 8.434 1.184 5.266 1.055 5h2.011l.082.031c-.046-.039.024.047.024.047l.031.074.055.063s.308.375.75 1.172c.472.855.87 1.3 1.316 1.515.446.215.914.063 1.114-.05.37-.215.414-.516.476-.793.063-.278.082-.575.094-.864C7.03 5.641 7 5.168 7 5.133c-.004-.012-.004-.149-.043-.297a1.846 1.846 0 0 0-.27-.563c-.062-.085-.12-.043-.187-.105.277-.078.574-.156 1.188-.148z"/>
  </symbol>
  <symbol id="instagram" viewBox="0 0 26 26">
    <path d="M7.547 0C3.39 0 0 3.39 0 7.547v10.906C0 22.61 3.39 26 7.547 26h10.906C22.61 26 26 22.61 26 18.453V7.547C26 3.39 22.61 0 18.453 0zm0 2h10.906A5.53 5.53 0 0 1 24 7.547v10.906A5.53 5.53 0 0 1 18.453 24H7.547A5.53 5.53 0 0 1 2 18.453V7.547A5.53 5.53 0 0 1 7.547 2zM20.5 4a1.5 1.5 0 1 0 0 3 1.5 1.5 0 0 0 0-3zM13 6c-3.855 0-7 3.145-7 7s3.145 7 7 7 7-3.145 7-7-3.145-7-7-7zm0 2c2.773 0 5 2.227 5 5s-2.227 5-5 5-5-2.227-5-5 2.227-5 5-5z"/>
  </symbol>
  <symbol id="twitter" viewBox="0 0 502.548 502.548">
    <path d="M490.932 91.474c1.133-3.4 1.7-7.083 1.7-10.767 0-18.417-14.733-33.717-33.15-34h-2.833c-5.1.283-9.917 1.7-14.167 3.967-1.417.567-2.55 1.417-3.683 1.983l-1.7.85c-8.783 3.4-17.85 6.8-27.2 10.2-15.583-11.333-34-19.833-55.817-24.65-2.55-.567-5.1-1.417-7.65-1.417h-24.083c-2.833 0-5.95 1.133-8.783 1.7-18.983 5.1-38.817 12.183-56.95 27.2-24.65 20.683-39.667 47.033-44.483 77.35-49.583-10.483-90.667-34.567-124.383-75.083-6.517-7.65-15.867-11.333-26.067-11.333-9.917 0-19.55 3.967-26.067 11.617-18.7 22.383-25.783 51.85-19.833 83.867 1.7 8.783 4.25 17.567 7.65 26.35a33.33 33.33 0 0 0-8.217 18.133c-3.967 32.3 7.65 62.617 32.583 87.833-1.133 4.817-1.417 9.633-.283 14.45 4.25 22.1 15.583 41.083 32.867 55.817-10.483 2.267-21.817 3.683-33.717 3.683-3.4 0-6.8 0-10.2-.283h-2.55c-14.733 0-28.05 9.633-32.3 23.8-4.817 15.017 1.417 31.45 15.017 39.383 1.133.567 2.267 1.417 3.4 1.983 2.833 1.7 6.233 3.683 9.633 5.667 43.633 23.233 90.1 35.133 137.7 35.133 17.567 0 35.417-1.7 53.267-4.817 58.083-10.2 109.933-36.833 150.167-76.217s68.283-91.517 80.75-150.167c2.833-13.6 3.967-26.917 4.817-39.667.283-4.817.567-9.35 1.133-13.883 14.733-13.033 27.483-26.917 38.533-42.783 3.967-5.667 6.517-12.467 6.517-19.833-.002-10.482-4.535-19.832-11.618-26.066zm-60.917 67.434c-2.833 2.55-5.1 7.367-5.667 11.333-2.267 18.7-2.267 37.967-6.233 56.1-22.95 106.533-99.45 181.617-203.717 200.317-15.867 2.833-31.733 4.25-47.317 4.25-42.217 0-82.733-10.483-121.55-31.167-3.967-1.983-7.65-4.533-11.617-6.8 4.25.283 8.5.567 12.75.567 50.717 0 96.9-21.533 114.183-39.1-44.483-6.8-73.95-29.75-79.9-60.633 11.617-.567 23.233-1.417 35.133-1.983-47.317-22.667-71.117-54.4-66.867-90.1 11.333 2.833 22.95 5.667 34.283 8.5-37.4-39.95-47.033-89.817-21.817-119.567 47.883 56.95 109.367 87.267 184.45 92.367-.283-2.267-.567-3.683-.567-5.1-3.683-34 6.233-63.183 33.15-85.567 12.75-10.767 28.05-15.017 43.917-20.683h24.083c20.4 5.667 38.817 13.6 54.4 28.05.85.567 2.267 1.417 3.683 1.417.85 0 1.983 0 2.55-.283 14.167-5.1 28.333-10.2 42.5-15.583 2.55-1.133 5.1-2.55 9.067-4.533-7.933 20.967-20.683 35.7-37.4 47.317.283.567.567 1.417 1.133 1.983 15.017-4.25 30.317-8.5 46.183-13.033-11.33 16.147-24.08 29.747-38.813 41.931z"/>
  </symbol>
</svg>
